<svg width="72" height="31" viewBox="0 0 72 31" fill="none" xmlns="http://www.w3.org/2000/svg">
<path d="M17.08 13.44H34.16V30H27.12L26.28 22.92C25.48 25.4533 24.0533 27.3333 22 28.56C19.9467 29.7867 17.44 30.4 14.48 30.4C11.7867 30.4 9.38667 29.8 7.28 28.6C5.2 27.4 3.56 25.68 2.36 23.44C1.18667 21.2 0.6 18.5867 0.6 15.6C0.6 10.8267 2.02667 7.05333 4.88 4.28C7.73333 1.50667 12.1733 0.119998 18.2 0.119998C21.64 0.119998 24.6667 0.679998 27.28 1.8C29.92 2.92 32.16 4.65333 34 7C32.8 7.61333 30.4533 8.84 26.96 10.68L25.96 11.24C24.92 10.2 23.7067 9.42667 22.32 8.92C20.9333 8.38667 19.4667 8.12 17.92 8.12C15.36 8.12 13.4533 8.8 12.2 10.16C10.9467 11.4933 10.32 13.1467 10.32 15.12C10.32 17.2533 10.9867 18.9733 12.32 20.28C13.68 21.5867 15.7467 22.24 18.52 22.24C19.72 22.24 20.88 22.0667 22 21.72C23.1467 21.3733 24.1067 20.7733 24.88 19.92H17.08V13.44ZM71.7178 9.36C67.5311 9.22667 63.4645 9.14667 59.5178 9.12V30H49.5178V9.12C45.5445 9.14667 41.4911 9.22667 37.3578 9.36V0.96H71.7178V9.36Z" fill="black"/>
</svg>
